<svg version="1" xmlns="http://www.w3.org/2000/svg" width="570.667" height="570.667" viewBox="0 0 428.000000 428.000000"><path d="M207.3.7c3.7.2 9.7.2 13.5 0 3.7-.2.6-.3-6.8-.3-7.4 0-10.5.1-6.7.3zM191.3 1.7c.9.2 2.5.2 3.5 0 .9-.3.1-.5-1.8-.5-1.9 0-2.7.2-1.7.5zM233.3 1.7c.9.2 2.5.2 3.5 0 .9-.3.1-.5-1.8-.5-1.9 0-2.7.2-1.7.5zM98.5 96c-5.1 16.3-5.7 30.8-1.7 43.5l1.8 6-4.8 6.3c-5.7 7.5-12 20.1-14.5 29.2-2.5 9.3-2.5 40 0 51.8 5.1 23.3 14.4 40.6 27.9 52 13.2 11.1 39.7 21.6 60.2 23.7l6.8.7-2.4 2.6c-4.8 5.3-8.9 14.1-10.3 22.3-.7 3.5-1 3.8-7.8 6-5.6 1.8-9.6 2.3-17.7 2.4-9.5 0-11.1-.3-16-2.7-8.1-4-13.4-8.9-20-18.7-6.6-9.8-9.2-12.4-17.2-17.5-11.2-7.1-26.8-8.3-26.8-2 0 2.1 5.6 7.9 11 11.4 6.8 4.3 13.2 13.2 20 27.5 4.6 9.6 6.8 13 10.9 16.8 10.2 9.5 24.3 13.3 46.1 12.4 6.9-.3 13.3-.8 14.3-1.2 1.6-.7 1.7.7 1.7 21.2 0 24.1-.2 25.2-6.3 27.6-3 1.3-2.9 1.4 7.9 4 19.6 4.8 30.2 6.1 52.4 6.1s32.8-1.3 52.4-6.1c10.5-2.6 10.9-2.8 8-3.9-1.6-.7-3.8-2.2-4.9-3.4-1.9-2.1-2-3.7-2.1-39.4-.1-31.7-.4-38-1.8-43.5-2-7.5-4.7-13.1-8.7-18.2l-2.9-3.7 5.8-.7c17.2-2 35.6-8.1 49.6-16.3 10.3-6.1 22.1-17.6 27-26.5 14.3-25.6 18.6-64.6 10.1-89.6-3.1-9.3-8.6-19.5-13.6-25.5-2.5-3.1-3.8-5.5-3.4-6.5 2.2-5.7 3.6-13.8 3.6-21.7.1-10.7-.4-14-3.8-25.7l-2.6-8.7h-6c-10.1 0-29.8 7.7-46.5 18.3l-6.5 4.1-5.6-1.3c-34-7.4-70.1-7.1-98.6.7-2.5.7-4.1.1-11-4.2-15.3-9.5-36.6-17.6-46.1-17.6h-5.3l-2.6 8zM79.7 306.5c.7 2 0 2.7-2 1.9-2.5-.9-3-3.4-.6-3.4 1.1 0 2.2.7 2.6 1.5zm8.7 7.1c1.9 1.8 2 3 .5 3.9-1.2.8-4.9-2.3-4.9-4.2 0-1.8 2.5-1.7 4.4.3zm9 11.5c1.6 2.4 1.1 4.9-1 4.9-1.7 0-4.8-4.6-3.9-6 1-1.6 3.3-1.2 4.9 1.1zm11.1 11.9c2.1 2.3 1.3 5-1.4 5-2.3 0-5.2-3.6-4.4-5.6.7-2 3.7-1.7 5.8.6zm14 8.2c4.7 2.1 2.3 5.7-3 4.4-1.5-.4-2.5-1.4-2.5-2.5 0-3.3 1.4-3.8 5.5-1.9zm35.6 1.4c1.1 1.4 1 1.8-.6 3-1 .8-2.9 1.4-4.2 1.4-1.8 0-2.3-.6-2.3-2.4 0-3.6 4.7-4.9 7.1-2zm-17.7 1c.9.3 1.6 1.4 1.6 2.4 0 2.2-4.6 3.6-6.6 1.9-2.4-2-1.8-2.9 3.3-4.8.1-.1.8.2 1.7.5z"/></svg>